<?xml version="1.0" encoding="UTF-8"?>
<!DOCTYPE svg PUBLIC "-//W3C//DTD SVG 1.1//EN" "http://www.w3.org/Graphics/SVG/1.1/DTD/svg11.dtd">
<!-- Creator: CorelDRAW X7 -->
<svg xmlns="http://www.w3.org/2000/svg" xml:space="preserve" width="120.649mm" height="34.9232mm" version="1.1" style="shape-rendering:geometricPrecision; text-rendering:geometricPrecision; image-rendering:optimizeQuality; fill-rule:evenodd; clip-rule:evenodd"
viewBox="0 0 12065 3492"
 xmlns:xlink="http://www.w3.org/1999/xlink">
 <defs>
  <style type="text/css">
   <![CDATA[
    .fil1 {fill:black;fill-rule:nonzero}
    .fil0 {fill:#0E7BE8;fill-rule:nonzero}
   ]]>
  </style>
 </defs>
 <g id="Camada_x0020_1">
  <metadata id="CorelCorpID_0Corel-Layer"/>
  <path class="fil0" d="M2658 1844c-2,22 -10,40 -23,53 -13,12 -30,19 -51,19 -11,0 -22,-2 -32,-5 -20,16 -45,29 -74,38 -29,9 -56,18 -81,26 -31,-1 -61,-4 -91,-8 -30,-4 -61,-5 -93,-3 -11,-8 -22,-13 -34,-15 -12,-2 -25,-4 -38,-4 -12,-1 -24,-3 -36,-6 -11,-3 -23,-11 -34,-23l-82 0c-8,0 -19,-4 -34,-11 -15,-7 -32,-15 -50,-22 -18,-8 -37,-15 -58,-22 -20,-6 -39,-10 -57,-10l-10 0c-12,-10 -26,-17 -42,-22 -16,-5 -32,-9 -49,-13 -16,-4 -32,-8 -48,-13 -15,-4 -28,-10 -39,-18 -11,-8 -24,-16 -39,-24 -14,-8 -29,-12 -44,-11 -21,-12 -43,-22 -65,-31 -23,-9 -46,-17 -69,-25l-68 -25c-22,-8 -44,-19 -66,-31 -3,1 -7,1 -11,0 -5,-1 -9,-2 -12,-2 -7,0 -11,3 -12,7 -7,-8 -16,-15 -25,-20 -10,-6 -19,-12 -28,-20 -4,1 -8,2 -12,3 -4,0 -9,0 -14,0 -10,0 -20,-1 -29,-3 -9,-2 -18,-5 -27,-8 -10,22 -17,47 -20,74 -4,28 -6,56 -7,86 -2,29 -4,58 -6,87 -3,29 -7,56 -15,81 2,8 3,17 3,26l0 28c0,19 3,34 8,45 -2,9 -4,19 -5,28 -2,9 -4,17 -6,26 1,12 2,24 2,34 1,10 1,22 1,34l0 28c0,10 -1,20 -3,30 -11,6 -22,13 -33,19 -11,6 -22,13 -33,22 -8,-15 -21,-23 -40,-25 -4,6 -8,13 -9,23 -2,9 -7,14 -16,14 -15,-12 -28,-22 -38,-30 -10,-8 -21,-19 -33,-35 -1,-2 -2,-5 -2,-8 0,-5 2,-11 4,-15 2,-4 3,-9 3,-13 0,-13 -2,-25 -5,-35 -2,-14 -4,-28 -5,-42 -1,-14 -2,-27 -2,-40 0,-19 2,-37 5,-55 2,-18 7,-36 15,-55 13,-32 21,-65 26,-100 5,-36 9,-71 11,-107 2,-36 3,-72 4,-108 0,-37 2,-72 6,-105 -8,-17 -17,-31 -28,-42 -10,-10 -15,-27 -15,-50 0,-21 6,-37 20,-49 13,-12 24,-25 34,-42 -2,-7 0,-11 5,-13l20 -174c1,-12 3,-25 6,-40 3,-14 5,-27 6,-39 2,-26 3,-50 3,-75 0,-24 1,-48 3,-72 6,-54 11,-108 16,-161 5,-53 7,-106 7,-158 0,-26 -1,-51 -2,-77 -2,-25 -5,-50 -11,-76 -19,6 -39,12 -62,18 -23,6 -42,16 -57,30l-13 0c-29,0 -56,6 -80,17 -25,11 -50,22 -76,31 -11,6 -22,9 -33,11 -11,2 -22,4 -35,8 -5,1 -11,4 -18,10 -6,5 -12,9 -18,11l-28 7c-8,2 -11,7 -10,15 1,7 -1,12 -8,15 -6,5 -13,8 -23,7 -10,-1 -18,-1 -24,-1l-6 0c-28,20 -54,37 -80,51 -26,13 -57,23 -92,27l-36 23c-12,8 -26,12 -42,12 -12,0 -22,-3 -29,-7 -9,-13 -16,-28 -21,-45 -5,-16 -14,-30 -26,-43 6,-5 9,-13 11,-22 2,-9 3,-18 6,-26 33,-14 66,-28 100,-41 33,-13 66,-29 96,-48 4,1 9,2 15,2 11,0 21,-2 30,-5 9,-4 18,-8 26,-12 10,-4 18,-8 27,-11 9,-4 19,-5 31,-4 38,-21 78,-38 119,-51 42,-14 82,-32 120,-55 5,0 10,1 14,3 4,2 8,3 12,3 5,0 7,0 8,-1 7,-9 16,-15 27,-19 11,-4 22,-7 34,-10 11,-3 22,-7 33,-12 10,-5 17,-13 21,-24 5,5 13,7 24,7 19,0 36,-4 52,-12 16,-8 34,-11 53,-11 4,0 8,1 12,2 4,2 8,3 12,3 9,0 14,-3 14,-9 1,-5 4,-10 9,-15 68,-12 135,-22 201,-32 67,-10 134,-15 203,-15 10,-7 21,-10 33,-10 12,0 23,3 33,10 19,-2 37,-4 56,-5 19,-1 38,-2 56,-2 43,0 88,3 133,8 45,6 90,15 134,26 45,12 88,27 129,46 40,20 79,43 114,69 3,10 7,20 13,30 5,10 13,18 22,23 0,2 -1,4 -1,5 -1,1 -1,3 -1,5 0,12 4,24 11,35 7,11 10,24 10,39 0,16 -2,31 -7,47 -5,15 -7,31 -6,46 -12,18 -22,34 -30,48 -9,14 -14,33 -16,55 -20,19 -38,42 -53,65 -16,24 -31,47 -47,70 -16,22 -34,43 -54,62 -20,18 -44,33 -71,44 -1,11 -6,23 -13,37l-35 0c-3,8 -9,15 -17,19l-23 14c-8,4 -14,10 -19,16 -5,7 -7,16 -7,29 -2,-2 -5,-2 -8,-2 -11,0 -24,5 -39,16 -15,12 -27,20 -36,27 -19,13 -38,25 -57,36 -19,11 -36,27 -50,47 -44,18 -86,40 -126,65 -40,25 -83,45 -129,59 -18,19 -38,33 -62,44 -24,10 -47,21 -69,34l0 5c0,8 4,17 10,25 7,8 15,16 23,22 9,5 19,10 29,12 11,2 20,2 28,0 22,20 47,36 76,48 28,12 58,23 89,33 31,10 61,20 91,31 30,11 57,25 82,41l40 0c26,22 56,39 90,50 35,11 69,21 101,29 13,13 29,22 50,28 20,6 40,9 59,9l10 0c4,0 8,-1 11,-2l0 3c0,6 2,9 5,11 3,2 7,3 11,3 4,1 8,2 12,4 3,1 6,4 9,7l16 0c23,0 45,5 66,14 21,10 43,14 66,14 10,0 18,-1 23,-3 7,2 12,6 15,13 4,7 8,12 14,17 7,-2 14,-2 21,-3 7,0 13,-1 20,-1 24,0 47,3 68,8 21,6 42,14 64,25 36,-15 70,-28 104,-38 35,-10 71,-15 110,-15l0 4c0,13 3,25 10,37 7,11 14,23 19,35zm-633 -1319c0,-13 -3,-24 -7,-31 -5,-8 -12,-15 -20,-21 -7,-6 -15,-12 -24,-17 -8,-6 -15,-13 -22,-22 -28,-9 -57,-19 -84,-30 -28,-11 -56,-20 -84,-28 -15,-3 -29,-6 -44,-9 -14,-3 -28,-4 -42,-4l-37 0c-6,-1 -13,-3 -20,-4 -8,-2 -15,-3 -21,-4 -16,-2 -31,-4 -46,-5 -14,-1 -30,-2 -45,-2 -29,0 -58,1 -86,3l-86 7c-12,1 -25,2 -38,2 -13,0 -26,1 -37,3 -5,1 -13,4 -23,8 -10,4 -20,7 -31,11 -11,4 -22,8 -32,13 -11,4 -20,8 -28,10 2,7 2,15 2,23l0 21c0,17 0,33 -2,50 -1,17 -3,33 -6,50 -1,6 -3,13 -5,19 -2,7 -4,14 -5,20 -2,10 -3,21 -3,34l0 31c-3,25 -4,50 -5,74 -2,25 -3,49 -5,75 -7,73 -14,145 -21,217 -7,71 -12,144 -14,216 36,-7 71,-19 104,-34 33,-16 66,-33 98,-51 32,-18 64,-36 96,-54 31,-18 65,-32 101,-44 8,-13 19,-23 32,-30 12,-8 23,-18 32,-30 11,0 19,-2 25,-8 5,-5 12,-8 21,-10 53,-47 107,-90 162,-131 55,-41 108,-85 159,-131 5,-15 12,-31 22,-45 11,-15 21,-31 31,-46 10,-15 19,-31 26,-46 8,-16 12,-32 12,-50z"/>
  <path id="1" class="fil0" d="M3186 725l0 7c-8,2 -12,7 -12,16 -12,6 -25,10 -38,13 -13,2 -26,7 -38,12 -12,-1 -24,-2 -37,-2 -13,-1 -25,-1 -37,-1 -33,0 -66,1 -100,3 -33,2 -66,2 -99,0 -15,9 -32,16 -50,21 -18,5 -36,7 -52,7 -13,0 -25,-1 -35,-5 -26,13 -55,24 -87,34 -31,8 -63,17 -95,25 -32,8 -63,18 -92,28 -29,11 -55,25 -77,44 -2,16 -3,31 -4,46 -2,15 -2,30 -2,44 0,15 1,30 2,43 2,13 5,27 11,40 5,2 12,4 19,5 7,1 14,1 19,1 6,0 11,0 17,-2 5,-2 9,-5 11,-11 17,-2 33,-3 50,-2 16,0 33,0 50,0 16,0 32,0 48,-1 16,-1 32,-4 47,-9 18,-4 35,-7 52,-8 18,-1 34,-2 51,-4 16,-1 33,-3 51,-6 18,-2 36,-8 55,-17 14,5 29,8 43,8 15,0 30,1 44,3 8,6 14,12 19,18 5,7 8,15 8,23 0,16 -6,32 -17,47 -11,15 -20,30 -26,43l-18 0c-27,0 -52,4 -77,11 -25,7 -50,15 -75,25 -25,9 -49,18 -74,25 -25,7 -51,11 -77,11 -5,0 -7,2 -7,7 -1,5 -2,9 -5,11 -5,-1 -13,-2 -24,-2 -26,0 -50,3 -73,8 -23,6 -47,9 -71,9 -7,0 -13,0 -20,-1 -7,0 -13,-1 -20,-2 -6,8 -13,14 -21,17 -9,3 -18,7 -25,14 -4,10 -6,22 -6,37 -1,14 -1,29 -2,44 0,14 -2,28 -4,42 -2,13 -7,24 -13,31 1,6 5,8 13,6 8,-2 12,2 12,11 0,10 -1,20 -4,31 -2,12 -3,23 -3,34 0,20 3,44 8,68 4,25 12,48 23,69 10,21 24,39 42,52 18,14 40,21 66,21 18,0 34,-3 50,-10 15,-7 28,-18 38,-33l8 -2c4,0 9,1 12,2 4,1 8,2 13,2 6,0 15,-5 25,-13 11,-8 22,-18 35,-29 13,-11 26,-22 39,-32 13,-11 26,-18 38,-23 8,-15 15,-31 22,-46 7,-16 18,-28 33,-37l0 -48c11,-12 22,-23 35,-33 13,-10 22,-23 29,-38 6,2 11,4 16,5 5,1 10,1 16,1 5,0 11,0 17,-1 6,-1 12,-3 17,-5 9,12 16,25 21,40 5,15 11,29 19,43 -10,19 -22,43 -35,71 -13,27 -27,55 -43,82 -15,28 -31,54 -49,79 -17,25 -34,44 -50,57 -3,4 -11,8 -22,12 -12,9 -23,17 -33,25 -10,9 -19,19 -28,30 -32,9 -62,23 -92,39 -29,17 -58,33 -86,48 -13,-3 -28,-5 -43,-5 -14,0 -27,1 -40,3 -13,1 -28,2 -43,2 -4,-5 -11,-9 -19,-10 -8,-2 -11,-8 -9,-18 -38,-2 -68,-12 -91,-30 -23,-19 -43,-41 -59,-67 -16,-27 -29,-56 -39,-86 -9,-31 -20,-61 -31,-90l0 -5c0,-5 2,-9 7,-10 4,-1 6,-4 6,-10 0,-2 0,-3 -2,-4 -3,-13 -6,-23 -8,-32 -2,-9 -3,-19 -3,-31 0,-18 1,-35 3,-53 2,-17 4,-34 4,-52 0,-17 -3,-33 -7,-46 4,-5 8,-13 11,-22 2,-10 4,-19 5,-29 2,-10 2,-20 3,-30 1,-10 2,-19 4,-26 -4,-12 -8,-23 -12,-33 -3,-9 -4,-20 -4,-34l0 -11c11,-19 20,-38 28,-58 7,-20 16,-40 24,-61l0 -5c0,-32 -1,-64 -3,-96 -2,-32 -3,-64 -3,-96l0 -32c0,-11 0,-21 2,-31 8,-4 15,-10 19,-18 5,-8 11,-14 20,-18l55 0 10 -17c3,-5 5,-12 6,-18 12,-3 24,-8 36,-14 11,-6 22,-13 32,-19 15,-9 30,-17 42,-24 13,-7 26,-14 38,-19 13,-5 27,-9 41,-12 14,-3 31,-6 49,-8 9,0 15,-2 18,-5 2,-4 7,-7 12,-12 13,2 27,4 40,6 13,2 26,2 40,2 26,0 51,-5 74,-14 33,0 66,-1 98,-2 33,-1 66,-2 99,-2 28,0 57,1 86,4 28,2 57,5 84,11 10,-3 21,-5 33,-5 13,0 27,1 41,4 14,3 27,3 40,1 1,12 4,22 9,30 5,9 8,18 8,29z"/>
  <path id="2" class="fil0" d="M4337 1656c-3,16 -11,28 -21,37 -10,10 -23,17 -37,22 -14,6 -29,9 -44,11 -15,2 -28,3 -40,3 -6,0 -11,-1 -16,-1 -5,-1 -10,-1 -16,-1 -5,0 -8,3 -8,8 0,6 -3,9 -8,12 -6,-3 -11,-4 -17,-5 -5,-1 -11,-2 -16,-2 -8,0 -16,1 -23,2 -7,1 -14,1 -21,1 -8,0 -15,-1 -18,-3 -4,-2 -8,-5 -10,-7 -3,-3 -6,-6 -9,-9 -2,-4 -7,-6 -12,-9 -8,-3 -14,-3 -19,-1 -5,2 -13,-1 -22,-10 -14,-11 -25,-24 -34,-40 -10,-16 -19,-33 -28,-50 -8,-18 -18,-36 -28,-53 -10,-18 -21,-33 -35,-46l-13 0c-20,0 -33,8 -41,25 -5,-4 -11,-8 -16,-13 -6,-5 -12,-9 -19,-12 -25,7 -51,14 -79,20 -28,5 -55,8 -83,8l-23 0c-7,0 -14,-1 -21,-3 -11,4 -22,9 -30,15 -9,6 -19,9 -30,9 -7,0 -14,-2 -23,-6 -7,0 -10,2 -9,8 0,5 -3,8 -11,8l-15 0c-15,0 -31,1 -45,2 -15,1 -30,2 -46,2 -21,0 -42,-3 -64,-9 -6,4 -12,5 -19,5 -4,3 -7,6 -9,11 -3,5 -5,9 -7,13 -2,4 -5,7 -9,10 -4,3 -9,4 -16,3 -2,13 -7,23 -16,31 -9,8 -14,19 -14,35 -12,6 -22,15 -29,25 -8,9 -16,20 -23,31 -8,11 -16,21 -24,31 -9,10 -19,18 -31,23 -6,7 -7,18 -5,32 -12,10 -27,19 -45,26 -17,8 -34,12 -49,12 -32,0 -54,-17 -66,-52 0,-11 0,-22 2,-35 2,-13 4,-25 8,-37 3,-11 8,-22 14,-31 7,-9 16,-16 28,-20 0,-10 -3,-17 -9,-21 -7,-4 -10,-11 -9,-21 30,-14 56,-33 78,-56 22,-23 42,-48 60,-74 18,-25 37,-52 56,-78 19,-27 39,-50 63,-71l0 -35c33,-35 54,-75 64,-119 12,-2 20,-8 24,-17 4,-9 6,-19 6,-31 5,0 9,-3 11,-7 1,-6 6,-7 14,-5 10,-26 21,-51 33,-73 12,-22 24,-44 36,-66 12,-23 23,-46 32,-71 10,-24 17,-51 21,-81 15,-1 24,-8 26,-22 1,-14 3,-26 6,-37 16,-16 28,-34 37,-55 8,-21 15,-42 22,-65 7,-22 14,-45 22,-68 9,-22 20,-42 36,-60l0 -5c0,-5 -2,-9 -7,-11 -4,-1 -6,-5 -6,-10 1,-1 1,-3 1,-4 14,-5 24,-14 30,-27 7,-12 17,-22 30,-27 23,19 43,30 61,34 18,4 41,7 70,9 14,15 22,34 24,55 1,22 5,43 10,64 9,35 19,70 29,103 11,34 19,68 24,103 3,21 9,41 18,60 9,19 15,38 18,58 3,15 3,32 0,52 -2,19 0,36 7,50l12 27c5,12 10,24 14,37 4,14 7,27 10,40 9,33 17,69 24,107 8,38 19,72 34,103 6,11 14,19 26,23 11,5 24,8 39,9 14,2 28,3 42,2 14,-1 26,-1 35,-1l17 0c7,0 13,1 20,4 4,8 7,16 7,23 0,13 -5,24 -14,31 -8,8 -13,17 -13,27 0,5 2,11 7,18 -5,-1 -11,-2 -20,-2 -26,0 -50,5 -75,14 9,18 21,34 36,47 15,12 31,24 47,35 11,-9 23,-13 35,-13 13,0 25,3 37,9 12,6 24,9 37,9 10,0 17,-2 22,-5 9,10 16,20 21,30 6,11 13,20 22,29zm-518 -264c-2,-19 -6,-32 -10,-41 -6,-8 -10,-18 -13,-30 -4,-16 -7,-32 -9,-50 -2,-18 -4,-35 -7,-51 -8,-38 -17,-75 -26,-112 -9,-38 -21,-74 -36,-110 5,-6 7,-12 7,-18l0 -5c-10,-11 -17,-24 -22,-40 -4,-16 -8,-32 -12,-48 -4,-16 -9,-31 -15,-45 -6,-14 -16,-25 -29,-34 -3,7 -5,14 -5,23 0,8 1,15 3,22 1,6 2,13 2,21 -11,6 -19,14 -24,26 -5,11 -13,21 -24,27 -9,35 -21,69 -38,100 -16,32 -34,63 -52,93 -18,32 -35,63 -52,94 -16,32 -30,64 -40,98 -14,10 -24,23 -29,38 -4,16 -7,31 -7,47 10,5 21,8 34,9 13,0 25,1 37,1 12,0 24,1 35,3 11,2 21,8 29,16 15,-4 31,-7 48,-9 17,-1 31,-6 42,-14 22,8 46,12 71,12 13,0 26,-1 39,-3 12,-3 25,-5 37,-9 10,3 18,6 23,11 6,5 14,7 25,6 6,-5 9,-9 10,-14 1,-5 4,-10 8,-14z"/>
  <path id="3" class="fil0" d="M5435 961c0,12 -4,19 -12,22 -7,3 -11,10 -11,20 0,3 1,6 3,8 2,2 3,6 3,10l0 7c-13,64 -32,119 -57,167 -24,47 -53,91 -87,130 -33,40 -70,77 -111,113 -42,35 -86,72 -133,111 -14,11 -27,22 -41,33 -13,11 -26,22 -39,34l-36 35c-1,1 -7,4 -18,7 -11,4 -18,7 -20,8 -15,7 -32,14 -49,23 -17,9 -32,20 -44,33 -22,0 -40,4 -56,10 -15,7 -32,16 -51,27 -6,0 -10,-2 -14,-4 -4,-2 -8,-4 -13,-6 -4,-3 -9,-4 -14,-5 -5,0 -11,1 -19,3 -13,-22 -27,-41 -43,-56 -15,-16 -36,-25 -63,-28 -3,-19 -11,-34 -23,-44 -12,-11 -24,-22 -36,-34 -2,-7 -4,-14 -5,-23 -1,-9 -3,-17 -7,-25 -3,-8 -7,-14 -13,-20 -5,-5 -13,-8 -23,-8 -1,-7 2,-10 8,-10 7,0 10,-3 10,-8 0,-7 -1,-14 -3,-20 -2,-7 -4,-14 -4,-21 0,-6 1,-11 2,-15 1,-5 3,-10 5,-15 -3,-30 -5,-60 -5,-91 0,-60 4,-118 13,-176 8,-58 12,-117 12,-176 0,-27 -1,-53 -4,-80 -3,-26 -8,-52 -16,-77 -25,5 -51,11 -76,19 -25,7 -49,17 -71,29 -12,-8 -25,-13 -39,-14 -14,-2 -27,-5 -40,-9 -8,-16 -12,-32 -12,-49 0,-15 3,-30 8,-44l17 -43c26,-6 53,-14 78,-25 26,-11 53,-21 79,-29 9,-3 20,-5 34,-9 14,-3 23,-6 29,-8 8,-3 13,-9 16,-19 2,-9 6,-17 12,-23l28 0c7,0 14,0 22,0 7,1 14,3 21,6 40,-10 79,-17 119,-19 40,-3 81,-7 122,-13 5,0 11,-1 20,-2l28 -5c10,-2 20,-4 28,-6 8,-2 14,-2 17,-2 3,0 5,1 5,5l28 0c48,0 94,6 139,18l136 36c19,16 37,30 56,45 19,14 40,27 63,38 5,17 14,31 25,42 12,10 25,22 39,34 6,14 13,29 23,46 9,15 18,32 27,48 9,17 16,33 23,49 7,16 10,31 10,45zm-154 26c-12,-25 -24,-52 -35,-79 -11,-28 -24,-53 -41,-75 -20,-5 -40,-12 -60,-20 -21,-9 -35,-23 -42,-44 -3,1 -7,1 -12,1 -10,0 -19,-3 -27,-11 -7,-8 -16,-13 -26,-15 -9,-1 -21,-3 -36,-5 -14,-2 -30,-4 -47,-5 -16,-1 -33,-2 -48,-3 -16,-1 -29,-2 -38,-2 -8,0 -18,0 -27,1 -9,0 -19,1 -29,2 -9,0 -14,2 -16,4 -3,3 -7,6 -14,8 -5,-2 -11,-3 -18,-3l-20 0c-23,0 -46,3 -68,10 -23,7 -45,17 -67,29l0 6c0,9 4,14 11,15 8,1 13,6 14,14 -6,0 -10,0 -14,0 -3,1 -5,5 -5,13 0,11 2,23 5,36 2,13 4,27 4,40 0,10 -1,21 -4,35 -2,13 -7,23 -16,31 11,10 16,23 16,40 0,11 -2,22 -6,35 -5,12 -10,22 -17,31 -2,46 -7,93 -13,141 -7,47 -10,94 -10,140 0,23 1,46 4,68 3,22 8,44 14,66 12,12 25,22 39,29 14,6 29,13 44,19l0 5c0,3 -2,7 -7,10 -4,3 -6,8 -6,14 0,4 2,6 6,6 47,-13 90,-29 131,-48 41,-19 79,-44 114,-76 3,-3 7,-5 10,-5 2,0 5,1 9,2 4,1 8,2 11,3l-2 -7c0,-6 2,-12 6,-18 4,-5 8,-10 14,-15l17 -15c5,-5 10,-11 13,-16 9,-2 15,-7 19,-13 4,-7 11,-10 20,-10 3,-12 9,-22 18,-28 11,-6 17,-15 19,-27 22,-12 41,-27 59,-44 16,-18 33,-37 48,-57 14,-19 28,-40 42,-62 13,-21 27,-42 41,-62l0 -6c0,-18 3,-32 9,-43 6,-11 11,-24 14,-40z"/>
  <path id="4" class="fil0" d="M5865 1550c-6,9 -12,17 -20,24 -8,7 -15,15 -22,22 -7,4 -16,5 -25,5 -10,0 -18,0 -27,0 -8,-1 -16,-1 -23,0 -7,0 -13,2 -17,7 -9,-2 -15,-6 -20,-13 -4,-5 -12,-9 -23,-10 -5,-1 -9,-1 -13,0 -17,-19 -32,-39 -46,-60 -14,-21 -27,-40 -39,-59 -1,-41 -4,-82 -10,-124 -1,-10 -2,-20 -5,-30 -2,-10 -3,-19 -5,-28 0,-11 1,-22 3,-32 1,-11 3,-20 4,-29 4,-32 10,-64 15,-94 6,-31 10,-62 15,-95 4,-28 6,-58 6,-90 0,-31 -4,-60 -15,-88l-1 -8c2,-9 5,-17 7,-22 3,-7 5,-13 6,-21 2,-12 0,-21 -8,-27 3,-8 9,-14 16,-17 8,-3 13,-9 14,-19 1,-4 1,-9 0,-13 8,-4 18,-6 27,-9 9,-3 18,-3 27,-1 15,2 27,7 38,14 11,7 22,15 32,24 17,53 24,109 21,168 -3,59 -9,118 -16,177 -8,60 -13,118 -15,175 -3,56 6,109 26,157l3 2c6,1 11,-1 14,-6 3,-5 8,-7 13,-6 4,3 7,4 8,4 5,22 12,43 22,62 10,21 21,40 33,60z"/>
  <path id="5" class="fil0" d="M7110 691c-2,13 -5,25 -9,34 -4,9 -5,22 -3,37 -11,1 -19,5 -25,11 -6,6 -11,13 -15,21 -4,7 -8,15 -12,24 -4,8 -8,15 -14,22 9,39 14,80 15,120 1,41 4,81 8,121 6,51 14,101 26,150 12,49 17,99 17,149 0,16 0,30 0,43 -1,13 -1,27 -1,42 0,8 0,17 1,27 0,9 0,18 0,27 0,32 -4,64 -12,96 -8,32 -15,64 -19,96 -13,12 -25,25 -34,39 -9,15 -19,28 -29,40 -10,12 -22,23 -35,32 -13,9 -29,16 -49,19 -4,11 -10,19 -19,25 -10,5 -18,13 -24,23l-4 0c-27,0 -51,-4 -71,-12 -19,-7 -38,-16 -55,-26 -17,-10 -35,-20 -52,-31 -18,-11 -38,-20 -61,-27 -31,-25 -59,-53 -85,-84 -25,-30 -54,-57 -86,-81 -7,-22 -18,-40 -30,-55 -13,-14 -25,-31 -38,-50 -5,-7 -9,-14 -12,-21 -3,-7 -6,-14 -11,-23 -3,-9 -8,-15 -15,-18 -8,-4 -14,-7 -19,-12 -9,-34 -22,-65 -38,-94 -17,-29 -36,-56 -58,-83 -7,12 -12,25 -16,39 -4,14 -8,28 -11,41 -3,14 -7,28 -12,42 -5,14 -11,26 -19,37l0 5c0,5 2,9 7,10 4,1 6,4 6,10 0,1 0,2 -1,3 0,1 -1,2 -1,3 -5,5 -9,10 -12,17 -3,6 -9,10 -17,11 1,6 1,11 1,17l0 15c0,32 -3,64 -10,96 -8,32 -11,64 -11,97l0 22c0,7 0,15 2,21 2,7 5,14 10,20 4,7 6,13 6,18 0,8 -3,15 -10,22 8,5 17,11 27,18 10,7 19,14 27,22 8,9 15,17 21,27 5,9 8,19 8,31 0,19 -6,32 -19,40 -11,7 -26,14 -43,18 -17,4 -35,9 -53,13 -18,4 -33,10 -45,21l-6 0c-13,0 -23,-4 -29,-12 -7,-8 -17,-12 -30,-12 -21,-34 -35,-72 -43,-114 -8,-43 -12,-83 -12,-122 0,-48 4,-95 13,-142 8,-48 18,-95 29,-141 12,-46 25,-92 39,-138 13,-46 26,-92 39,-138l1 -5c0,-6 -1,-10 -4,-12 -3,-2 -4,-5 -4,-10 0,-2 0,-3 1,-3 4,-11 7,-22 11,-31 4,-10 7,-21 9,-33 7,-31 11,-63 14,-96 3,-32 5,-64 5,-96 1,-32 2,-65 3,-97 2,-33 6,-65 11,-97 9,-9 17,-18 25,-28 8,-10 18,-19 30,-26 22,1 44,4 66,9 22,6 43,15 63,27 13,47 22,95 27,142 5,47 14,95 26,142l0 5c0,6 3,8 9,8 6,-1 11,1 14,5 -2,4 -4,8 -4,12 -1,4 -1,9 -1,13l0 28c2,9 5,18 8,28 4,10 11,16 22,19 5,35 14,67 25,97 11,30 23,58 38,86 14,28 29,55 46,82 17,27 33,55 51,85 28,21 51,45 71,72 20,27 40,53 60,78 21,24 44,46 70,65 26,18 60,30 102,35 5,-5 9,-11 11,-19l9 -23c3,-8 7,-14 10,-21 4,-5 10,-10 18,-13 2,-31 4,-63 7,-95 3,-32 10,-62 21,-91 -6,-9 -8,-22 -8,-36 0,-11 0,-21 2,-31 2,-10 3,-20 3,-30 0,-21 -5,-38 -14,-51 0,-8 1,-16 2,-24 1,-8 4,-16 10,-24 -9,-22 -16,-45 -21,-70 -5,-24 -7,-48 -7,-74 0,-14 1,-29 5,-44 -7,-17 -11,-36 -13,-58l-7 -68c-2,-23 -6,-45 -10,-64 -4,-20 -13,-36 -25,-48 7,-10 10,-22 10,-35 0,-22 -3,-43 -10,-63 -6,-20 -10,-41 -10,-63 0,-15 4,-30 10,-46 24,1 48,4 72,7 24,4 47,6 70,6 7,9 15,16 23,22 9,5 19,10 29,15 10,5 19,11 29,16 9,6 16,13 22,23z"/>
  <path id="6" class="fil0" d="M8998 863c-3,9 -10,16 -19,20 -9,4 -19,7 -29,9 -10,2 -19,6 -27,11 -8,5 -14,13 -16,24l-3 2c-4,0 -8,-2 -9,-4 -2,-3 -3,-6 -4,-9 -1,-2 -3,-5 -4,-8 -2,-3 -4,-4 -8,-4 -12,0 -24,1 -35,3 -12,2 -23,4 -34,4 -17,0 -32,-2 -45,-7 -8,2 -12,7 -12,15 -1,8 -4,13 -11,15 -6,2 -12,3 -20,2 -8,0 -15,0 -23,3l-53 13c-18,5 -35,7 -53,7 -10,0 -17,-1 -21,-2 -17,13 -36,23 -57,29 -21,6 -42,12 -65,17 -23,5 -45,11 -66,19 -21,8 -41,20 -57,36 -9,-2 -17,-3 -23,-3 -15,0 -27,3 -38,9 -11,6 -23,12 -35,18 -6,2 -11,3 -17,3 -5,0 -11,1 -18,3 -6,3 -10,6 -12,11 -2,5 -6,9 -11,13 0,40 4,79 12,118 7,39 11,79 11,119l0 6c3,19 8,36 18,53 10,15 15,32 15,48 0,6 -1,12 -3,18 29,7 48,22 57,44 10,23 17,47 23,73 6,26 14,50 25,72 11,22 31,36 62,42 2,11 4,22 5,34 1,11 2,23 2,34 0,15 -2,30 -5,45 -4,15 -10,29 -20,41 -17,1 -29,1 -36,1 -8,0 -20,4 -35,10 -22,-13 -42,-28 -59,-45 -17,-17 -33,-35 -48,-55 -15,-19 -30,-39 -44,-59 -14,-21 -30,-40 -46,-59 -57,14 -116,24 -176,28 -60,5 -120,8 -180,8 -2,2 -5,3 -9,3 -5,0 -9,0 -13,1 -4,1 -7,2 -10,3 -3,2 -3,5 -2,9 -8,-4 -17,-7 -26,-9 -9,-2 -18,-2 -26,-2 -5,0 -11,0 -16,0 -6,1 -11,3 -17,6 -42,-8 -82,-18 -121,-32 -39,-14 -79,-25 -120,-34 0,-9 -2,-15 -7,-19 -4,-4 -8,-10 -11,-17 -47,-29 -85,-64 -117,-104 -31,-41 -44,-91 -39,-149l-11 -23c0,-18 4,-31 11,-38 -4,-8 -12,-16 -23,-23 10,-16 19,-32 27,-48 7,-17 13,-35 16,-53 1,-6 2,-11 2,-15 0,-5 1,-9 3,-15 2,-7 5,-14 9,-22 4,-9 8,-16 11,-23 18,-37 37,-73 59,-108 21,-34 48,-65 81,-90 3,-19 8,-34 17,-47 9,-13 18,-24 29,-35 11,-10 21,-21 31,-32 11,-11 19,-24 24,-40 22,-18 45,-37 67,-54 23,-18 42,-39 57,-63 20,-7 39,-15 56,-26 18,-10 33,-24 45,-40 27,-2 53,-7 79,-15 26,-8 53,-12 82,-12 12,0 26,3 43,8 18,5 31,13 39,25 1,3 2,5 2,9l2 8c1,2 2,4 4,6 1,1 4,1 9,1 0,24 -3,48 -8,73 -6,25 -20,43 -43,57 -15,-5 -30,-7 -47,-7 -22,0 -42,4 -60,13 -18,8 -36,17 -53,28 -17,10 -35,20 -52,31 -18,11 -36,18 -56,22 -2,9 -4,17 -6,24 -2,8 -2,15 1,24 -6,0 -10,0 -13,-2 -3,-2 -6,-3 -12,-3 -8,0 -13,5 -16,14 -2,8 -5,15 -7,21 -21,9 -39,21 -52,37 -14,16 -27,33 -38,51 -12,19 -24,36 -38,53 -13,16 -29,29 -49,38 -9,35 -17,70 -26,104 -8,34 -18,68 -29,102 4,14 5,27 5,42 0,17 -1,33 -5,48 6,9 11,19 17,31l20 38c6,13 13,26 20,37 7,11 14,19 21,24 12,9 31,17 56,24 25,8 48,19 68,36 2,0 5,0 8,-1 4,0 7,-1 8,-1 14,0 28,3 44,10 15,7 25,10 29,10 62,0 129,-4 202,-12 73,-8 140,-18 202,-30 2,-11 3,-21 3,-28 0,-15 -2,-29 -7,-43 -4,-14 -11,-25 -21,-35 0,-17 0,-34 1,-50 0,-17 1,-33 1,-50 0,-28 -1,-57 -4,-88 -2,-31 -7,-60 -16,-86l-3 0c-15,0 -28,4 -39,11 -12,7 -24,10 -36,10 -6,0 -12,-1 -16,-4 -14,15 -30,26 -48,34 -19,8 -39,15 -60,21 -21,6 -42,12 -62,19 -20,7 -39,16 -55,28 -9,-3 -17,-5 -25,-5 -8,0 -15,0 -22,2 -8,1 -16,2 -24,3 -23,-20 -35,-45 -35,-74 0,-16 2,-31 7,-46 5,-15 12,-28 21,-42 6,-3 12,-5 20,-6 8,0 15,-1 23,-3 8,-1 14,-4 19,-7 5,-3 8,-10 9,-18 3,3 6,5 8,5 2,0 5,-1 7,-2 2,-1 4,-2 6,-2 3,0 5,1 6,4 2,2 3,4 3,6 47,-25 96,-47 145,-64 50,-18 100,-34 152,-48 51,-14 103,-28 154,-41 52,-12 103,-26 154,-42 8,-6 16,-11 25,-15 9,-3 16,-8 23,-15 8,5 17,7 28,7 15,0 32,-3 50,-9 19,-6 34,-14 46,-23 4,1 8,2 12,2l11 0c22,0 43,-3 62,-10 20,-7 38,-15 57,-27l9 0c34,0 68,-3 101,-11 34,-8 68,-12 103,-12 46,0 85,12 120,35l0 20c0,9 0,17 0,24 1,7 3,15 6,23z"/>
  <polygon class="fil1" points="5393,3066 4926,3066 4926,2425 5374,2425 5374,2510 5057,2510 5057,2699 5351,2699 5351,2784 5057,2784 5057,2980 5393,2980 "/>
  <path id="1" class="fil1" d="M6171 3066l-158 0 -177 -233c-5,-7 -12,-19 -18,-35l-3 0c-3,7 -9,19 -19,36l-181 232 -158 0 277 -322 -255 -319 160 0 154 214c11,16 20,32 28,48l2 0c3,-6 14,-22 31,-50l164 -212 148 0 -261 318 266 323z"/>
  <path id="2" class="fil1" d="M6860 3040c-62,24 -141,36 -235,36 -122,0 -220,-29 -293,-87 -74,-59 -111,-135 -111,-231 0,-100 41,-182 123,-247 81,-64 186,-97 314,-97 81,0 149,9 202,26l0 100c-59,-25 -125,-37 -197,-37 -92,0 -166,22 -221,68 -56,46 -83,106 -83,180 0,71 26,129 78,172 52,44 121,66 209,66 81,0 153,-14 214,-43l0 94z"/>
  <polygon id="3" class="fil1" points="7690,3066 7559,3066 7559,2784 7154,2784 7154,3066 7023,3066 7023,2425 7154,2425 7154,2697 7559,2697 7559,2425 7690,2425 "/>
  <path id="4" class="fil1" d="M8585 3066l-143 0 -79 -167 -338 0 -75 167 -144 0 318 -641 146 0 315 641zm-259 -249l-117 -253c-5,-9 -9,-25 -14,-48l-3 0c-4,19 -8,35 -14,47l-117 254 265 0z"/>
  <path id="5" class="fil1" d="M9410 3066l-146 0 -403 -473c-15,-17 -26,-32 -33,-45l-3 0c3,17 5,48 5,94l0 424 -127 0 0 -641 154 0 392 463c18,22 31,38 37,46l3 0c-4,-20 -6,-50 -6,-92l0 -417 127 0 0 641z"/>
  <path id="6" class="fil1" d="M10273 3022c-84,36 -181,54 -291,54 -126,0 -227,-29 -302,-87 -76,-58 -113,-136 -113,-235 0,-99 42,-181 125,-244 84,-64 192,-96 323,-96 91,0 169,11 233,32l0 102c-66,-31 -147,-47 -241,-47 -89,0 -162,23 -218,68 -57,46 -85,106 -85,179 0,77 26,136 78,178 52,43 122,64 211,64 59,0 109,-8 149,-25l0 -160 -179 0 0 -84 310 0 0 301z"/>
  <polygon id="7" class="fil1" points="10925,3066 10458,3066 10458,2425 10906,2425 10906,2510 10588,2510 10588,2699 10883,2699 10883,2784 10588,2784 10588,2980 10925,2980 "/>
 </g>
</svg>
